<svg width="20" height="20" viewBox="0 0 20 20" fill="none" xmlns="http://www.w3.org/2000/svg">
<path d="M7.91762 17.7273C6.10221 17.1212 4.60717 16.0379 3.43249 14.4773C2.25782 12.9167 1.67048 11.1212 1.67048 9.09091C1.67048 8.60606 1.70862 8.12121 1.7849 7.63636C1.86117 7.15151 1.98322 6.67424 2.15103 6.20455L0.686499 7.04545L0 5.88636L3.95881 3.61364L6.24714 7.52273L5.05721 8.20455L3.72998 5.95455C3.5164 6.45455 3.3524 6.9697 3.23799 7.5C3.12357 8.0303 3.06636 8.56818 3.06636 9.11364C3.06636 10.8712 3.58886 12.4242 4.63387 13.7727C5.67887 15.1212 7.00992 16.0379 8.627 16.5227L7.91762 17.7273ZM14.508 5.90909V4.54545H17.1396C16.4073 3.54545 15.4882 2.76515 14.3822 2.20455C13.2761 1.64394 12.0976 1.36364 10.8467 1.36364C9.79405 1.36364 8.81388 1.55303 7.90618 1.93182C6.99847 2.31061 6.19375 2.83333 5.49199 3.5L4.78261 2.27273C5.60641 1.56061 6.52937 1.00379 7.55149 0.602273C8.57361 0.200758 9.66438 0 10.8238 0C12.1663 0 13.4325 0.268939 14.6224 0.806818C15.8124 1.3447 16.8421 2.10606 17.7117 3.09091V1.36364H19.0847V5.90909H14.508ZM13.4783 20L9.51945 17.7273L11.8078 13.8182L12.9748 14.5L11.6476 16.7955C13.6308 16.5985 15.2899 15.7689 16.6247 14.3068C17.9596 12.8447 18.627 11.1136 18.627 9.11364C18.627 8.79545 18.6079 8.48485 18.5698 8.18182C18.5317 7.87879 18.4744 7.57576 18.3982 7.27273H19.8169C19.878 7.57576 19.9237 7.87879 19.9542 8.18182C19.9847 8.48485 20 8.78788 20 9.09091C20 11.2576 19.3173 13.1742 17.9519 14.8409C16.5866 16.5076 14.8436 17.5606 12.7231 18L14.1648 18.8409L13.4783 20Z" fill="#575D90"/>
</svg>
